<svg width="14" height="26" viewBox="0 0 14 26" fill="none" xmlns="http://www.w3.org/2000/svg">
<path d="M7.64111 20.5344C9.14404 20.4641 10.1812 19.9148 10.7524 18.8865C11.0513 18.3591 11.2007 17.7483 11.2007 17.054C11.2007 15.9553 10.7964 15.1204 9.98779 14.5491C9.52197 14.2151 8.73975 13.8987 7.64111 13.5999V20.5344ZM3.17188 7.81226C3.17188 8.68237 3.45752 9.36353 4.02881 9.85571C4.60889 10.3479 5.38672 10.6907 6.3623 10.884V4.68774C5.21094 4.73169 4.38916 5.08325 3.89697 5.74243C3.41357 6.40161 3.17188 7.09155 3.17188 7.81226ZM0.798828 7.97046C0.798828 6.63452 1.28662 5.43042 2.26221 4.35815C3.24658 3.28589 4.62207 2.74097 6.38867 2.72339V0.969971H7.64111V2.69702C9.39014 2.82007 10.7305 3.33862 11.6621 4.25269C12.6025 5.15796 13.0947 6.35767 13.1387 7.85181H10.8315C10.77 7.18384 10.5898 6.60815 10.291 6.12476C9.7373 5.23706 8.854 4.77124 7.64111 4.72729V11.1345C9.68018 11.7058 11.0645 12.2419 11.7939 12.7429C12.9805 13.5691 13.5737 14.7908 13.5737 16.408C13.5737 18.7458 12.8135 20.407 11.293 21.3914C10.4492 21.9363 9.23193 22.2966 7.64111 22.4724V25.03H6.38867V22.4724C3.83105 22.3054 2.09521 21.4001 1.18115 19.7566C0.680176 18.8689 0.429688 17.6692 0.429688 16.1575H2.76318C2.8335 17.3616 3.02246 18.2405 3.33008 18.7942C3.875 19.7874 4.88574 20.3455 6.3623 20.4685V13.2834C4.46387 12.9231 3.06201 12.321 2.15674 11.4773C1.25146 10.6335 0.798828 9.4646 0.798828 7.97046Z" fill="white"/>
</svg>
