<svg width="96" height="41" viewBox="0 0 96 41" fill="none" xmlns="http://www.w3.org/2000/svg">
<path fill-rule="evenodd" clip-rule="evenodd" d="M3.39753 0.0967144C2.39768 0.30321 1.74138 0.616406 1.16412 1.16259C0.592134 1.70371 0.213909 2.4273 0.0662164 3.26307C0.0118098 3.57101 0.00414523 4.58095 0.00140504 11.8034C-0.00204998 20.9301 -0.0192853 20.3281 0.270539 21.1985C0.595232 22.1738 1.16424 22.831 2.05226 23.2564C2.27068 23.361 2.61022 23.496 2.8068 23.5562L3.16422 23.6657H23.0604C42.0126 23.6657 42.9744 23.6624 43.3338 23.5951C45.0012 23.2827 45.9092 22.3386 46.3282 20.4817L46.4314 20.0245L46.4305 16.5357C46.4297 13.2033 46.4261 13.0309 46.3508 12.6916C46.0567 11.3654 45.496 10.502 44.6148 10.0178C44.3241 9.85812 44.0263 9.74921 43.5914 9.64369C43.338 9.58223 42.7791 9.57453 37.1584 9.55499L31.0029 9.53359L30.9927 7.17889L30.9824 4.82419L45.0113 4.80844C52.7272 4.7998 59.0536 4.79905 59.07 4.80683C59.0864 4.8146 59.0998 9.06546 59.0998 14.2532V23.6855H61.6151H64.1303L64.1567 21.7018C64.1711 20.6108 64.183 16.9826 64.183 13.639C64.1831 10.2955 64.1949 6.93363 64.2094 6.16833L64.2356 4.77682H77.2749H90.3141V7.17128V9.56573L84.3048 9.53719C80.9996 9.52151 77.8544 9.52144 77.3153 9.53699L76.3352 9.56525V11.9081V14.2509H83.3246H90.3141V16.6429V19.0349L83.6523 19.0058C79.9883 18.9898 76.8518 18.9896 76.6823 19.0054L76.3742 19.0342L76.3845 21.35L76.3947 23.6657L83.9005 23.676C92.1056 23.6871 91.5708 23.7006 92.3792 23.4622C93.9495 22.999 94.9474 21.8696 95.2557 20.2067C95.3977 19.4402 95.4017 19.2057 95.4036 11.3889C95.4053 4.26293 95.4001 3.62059 95.3375 3.25703C95.0841 1.78432 94.063 0.628367 92.5777 0.132716L92.2402 0.0200534L61.1123 0.0100267L29.9843 0L29.589 0.0800953C28.7062 0.258918 28.0341 0.580523 27.504 1.07779C26.9425 1.60459 26.5868 2.27105 26.3516 3.23729L26.241 3.69125L26.2277 6.90249C26.2148 10.0288 26.2167 10.1269 26.299 10.6132C26.5748 12.2414 27.2508 13.25 28.4443 13.8138C28.6284 13.9007 28.931 14.0151 29.1167 14.0678L29.4544 14.1637L35.7763 14.1931L42.0981 14.2225L42.1103 16.5756C42.1171 17.8698 42.1205 18.9337 42.118 18.9398C42.1064 18.9683 9.66184 18.9958 7.50285 18.9692L5.05058 18.939V16.562V14.185L8.53538 14.1587C10.452 14.1443 14.0083 14.1325 16.4382 14.1325L20.8563 14.1325V11.8429V9.55333H12.9534H5.05058V7.18489V4.8165L12.9435 4.80651L20.8364 4.79656L20.8467 2.39844L20.8569 0.000315803L12.3481 0.0028817L3.83934 0.00548707L3.39753 0.0967144ZM73.2782 36.2501L73.2773 40.7026L73.5851 40.6911L73.8928 40.6796L73.9127 37.1987L73.9325 33.7179L76.8713 37.3097C78.4876 39.2852 79.8409 40.9404 79.8787 40.9879C79.9438 41.07 79.9473 40.8487 79.9482 36.6432L79.949 32.2121H79.6315H79.3141L79.3039 35.6797L79.2938 39.1473L76.355 35.56C74.7387 33.587 73.3854 31.9333 73.3476 31.8852C73.2825 31.8021 73.279 32.024 73.2782 36.2501ZM24.7325 32.0562C23.7232 32.1683 22.8518 32.5923 22.1048 33.3348C21.5185 33.9176 21.1216 34.5907 20.932 35.3238C20.758 35.9966 20.7684 36.9152 20.9573 37.5632C21.5652 39.6483 23.5416 40.9989 25.6709 40.7844C26.2891 40.7221 26.6788 40.615 27.1706 40.3722L27.5876 40.1664L27.598 38.5578L27.6084 36.9492H25.9201H24.2319V37.265V37.5808H25.5821H26.9324V38.6832V39.7857L26.6246 39.9028C25.6463 40.2752 24.5739 40.2576 23.6967 39.8548C22.7207 39.4065 21.8846 38.4454 21.6132 37.4597C21.4336 36.8072 21.4332 36.0089 21.6122 35.3702C21.96 34.1295 23.0776 33.0547 24.3192 32.7668C25.4529 32.5039 26.4249 32.7012 27.4983 33.4121L27.6075 33.4844V33.0895V32.6946L27.2992 32.5352C26.5369 32.141 25.5787 31.9622 24.7325 32.0562ZM92.3635 32.0562C91.3543 32.1683 90.4786 32.5933 89.7396 33.3297C88.9611 34.1054 88.5516 34.9507 88.4461 35.9996C88.3111 37.3416 88.8396 38.688 89.8756 39.6411C90.8166 40.5068 92.0347 40.9121 93.3094 40.7836C93.8854 40.7255 94.3625 40.5917 94.8414 40.3538L95.2186 40.1664L95.229 38.5578L95.2394 36.9492H93.5511H91.8629V37.265V37.5808H93.2131H94.5634V38.6832V39.7857L94.2556 39.9028C93.28 40.2742 92.2032 40.2569 91.3298 39.8558C90.4734 39.4624 89.6827 38.6408 89.3598 37.8084C88.9361 36.7162 89.035 35.4745 89.6239 34.4938C89.8521 34.1138 90.4137 33.5266 90.7858 33.2789C91.1401 33.043 91.5605 32.858 91.9701 32.7575C92.452 32.6393 93.2928 32.6392 93.7352 32.7573C94.1427 32.8661 94.5479 33.0414 94.8719 33.249C95.0189 33.3432 95.1616 33.4337 95.1889 33.4501C95.2273 33.4733 95.2385 33.3911 95.2385 33.0873V32.6946L94.9307 32.5369C94.1535 32.1385 93.211 31.962 92.3635 32.0562ZM0.135913 36.4459L0.146039 40.6796L1.74448 40.6899L3.34293 40.7002V40.384V40.0677H2.07211H0.801302V36.1399V32.2121H0.463544H0.125825L0.135913 36.4459ZM11.6032 36.4557V40.6993H11.9408H12.2783V36.4557V32.2121H11.9408H11.6032V36.4557ZM36.1855 36.4557V40.6993H36.523H36.8606V39.14V37.5808H39.5209H42.1812L42.1916 39.1302L42.202 40.6796L42.5296 40.691L42.8572 40.7025V36.4573V32.2121H42.5197H42.1821V34.5807V36.9492H39.5213H36.8606V34.5807V32.2121H36.523H36.1855V36.4557ZM51.0381 32.5082V32.8043H51.991H52.9439L52.954 36.7419L52.9641 40.6796L53.2916 40.691L53.619 40.7025L53.6291 36.7632L53.6393 32.824L54.5626 32.8134L55.4859 32.8028V32.5075V32.2121H53.262H51.0381V32.5082ZM63.7462 36.4557V40.6993H64.0837H64.4213V36.4557V32.2121H64.0837H63.7462V36.4557Z" fill="white"/>
</svg>
