<svg width="29" height="29" viewBox="0 0 29 29" fill="none" xmlns="http://www.w3.org/2000/svg">
<path fill-rule="evenodd" clip-rule="evenodd" d="M14.5 0C6.49187 0 0 6.49187 0 14.5C0 22.5081 6.49187 29 14.5 29C22.5081 29 29 22.5081 29 14.5C29 6.49187 22.5081 0 14.5 0ZM6.96094 12.0098H10.247V21.8829H6.96094V12.0098ZM10.4634 8.95538C10.4421 7.98733 9.74983 7.25 8.62571 7.25C7.50158 7.25 6.76667 7.98733 6.76667 8.95538C6.76667 9.90338 7.47986 10.6619 8.58305 10.6619H8.60405C9.74983 10.6619 10.4634 9.90338 10.4634 8.95538ZM18.3142 11.7773C20.4766 11.7773 22.0977 13.1888 22.0977 16.2214L22.0975 21.8823H18.8117V16.6002C18.8117 15.2734 18.3362 14.3681 17.1466 14.3681C16.2388 14.3681 15.698 14.9784 15.4605 15.5679C15.3737 15.7792 15.3523 16.0735 15.3523 16.3686V21.8826H12.0659C12.0659 21.8826 12.1092 12.9359 12.0659 12.0094H15.3523V13.4079C15.7885 12.7356 16.5696 11.7773 18.3142 11.7773Z" fill="#171717"/>
</svg>
