<svg width="28" height="29" viewBox="0 0 28 29" fill="none" xmlns="http://www.w3.org/2000/svg">
<g clip-path="url(#clip0_442_6822)">
<path d="M7.60457 7.96341C7.62374 7.70217 7.84128 7.5 8.10323 7.5H21.8968C22.1587 7.5 22.3763 7.70217 22.3954 7.96341L23.4226 21.9634C23.4439 22.2532 23.2145 22.5 22.9239 22.5H7.07606C6.7855 22.5 6.55614 22.2532 6.5774 21.9634L7.60457 7.96341Z" stroke="white"/>
<path d="M19 7C19 5.93932 18.5784 4.92177 17.8282 4.17147C17.0784 3.42118 16.0609 3 14.9998 3C13.9392 3 12.9217 3.4212 12.1714 4.17147C11.4212 4.92174 11 5.93932 11 7" stroke="white" stroke-linecap="round" stroke-linejoin="round"/>
</g>
<defs>
<clipPath id="clip0_442_6822">
<rect width="28" height="29" fill="white"/>
</clipPath>
</defs>
</svg>
