<svg width="25" height="25" viewBox="0 0 25 25" fill="none" xmlns="http://www.w3.org/2000/svg">
<path d="M16.3797 6.46532C16.3797 5.43669 15.9709 4.44988 15.2433 3.72226C14.5161 2.99463 13.5293 2.58618 12.5002 2.58618C11.4716 2.58618 10.4848 2.99466 9.75717 3.72226C9.02954 4.44985 8.62109 5.43669 8.62109 6.46532C8.62109 7.4943 9.02957 8.4811 9.75717 9.20838C10.4848 9.93601 11.4716 10.3448 12.5002 10.3448C13.5292 10.3448 14.516 9.93597 15.2433 9.20838C15.9709 8.48116 16.3797 7.49436 16.3797 6.46532Z" stroke="white" stroke-width="2" stroke-linecap="round" stroke-linejoin="round"/>
<path d="M21.5527 22.4139C21.5527 20.1279 20.5987 17.935 18.901 16.3179C17.2042 14.7009 14.9016 13.7932 12.5005 13.7932C10.1004 13.7932 7.79785 14.701 6.10006 16.3179C4.40227 17.9349 3.44922 20.1279 3.44922 22.4139" stroke="white" stroke-width="2" stroke-linecap="round" stroke-linejoin="round"/>
</svg>
