<svg width="282" height="121" viewBox="0 0 282 121" fill="none" xmlns="http://www.w3.org/2000/svg">
<path fill-rule="evenodd" clip-rule="evenodd" d="M10.0426 0.285425C7.08719 0.894838 5.14728 1.81915 3.44097 3.43105C1.75026 5.02803 0.632283 7.16348 0.195726 9.63002C0.0349081 10.5388 0.0122527 13.5194 0.0041531 34.8345C-0.00605944 61.7695 -0.0570047 59.9927 0.799675 62.5615C1.75942 65.4397 3.44132 67.3793 6.06617 68.6347C6.7118 68.9435 7.71544 69.3417 8.2965 69.5195L9.35297 69.8428H68.1631C124.183 69.8428 127.026 69.8329 128.088 69.6343C133.017 68.7124 135.701 65.9262 136.94 60.4459L137.244 59.0967L137.242 48.8005C137.24 38.9659 137.229 38.4572 137.006 37.4557C136.137 33.5419 134.48 30.9937 131.875 29.5647C131.016 29.0935 130.135 28.7721 128.85 28.4606C128.101 28.2793 126.449 28.2565 109.835 28.1989L91.6402 28.1357L91.6099 21.1865L91.5796 14.2373L133.047 14.1908C155.854 14.1653 174.554 14.163 174.602 14.186C174.651 14.2089 174.69 26.7542 174.69 42.0644V69.901H182.125H189.56L189.638 64.0469C189.681 60.8271 189.716 50.1193 189.716 40.2517C189.716 30.3842 189.751 20.4627 189.794 18.2041L189.871 14.0975H228.413H266.955V21.164V28.2306L249.193 28.1463C239.423 28.1001 230.126 28.0998 228.533 28.1457L225.636 28.2292V35.1433V42.0575H246.296H266.955V49.1168V56.1762L247.264 56.0902C236.434 56.043 227.163 56.0425 226.662 56.0891L225.751 56.1741L225.782 63.0084L225.812 69.8428L247.998 69.873C272.251 69.9058 270.67 69.9457 273.06 69.242C277.701 67.875 280.651 64.5419 281.562 59.6344C281.982 57.3724 281.994 56.6803 281.999 33.6112C282.004 12.5809 281.989 10.6852 281.804 9.6122C281.055 5.26593 278.037 1.85445 273.646 0.391674L272.649 0.0591821L180.639 0.0295911L88.6294 0L87.4609 0.236379C84.8513 0.764125 82.8648 1.71325 81.298 3.1808C79.638 4.7355 78.5867 6.70237 77.8914 9.55395L77.5647 10.8937L77.5254 20.3708C77.4872 29.5971 77.4928 29.8868 77.7361 31.3218C78.5512 36.1271 80.5494 39.1035 84.0773 40.7675C84.6214 41.0241 85.5157 41.3615 86.0647 41.5172L87.0629 41.8003L105.749 41.8869L124.436 41.9737L124.472 48.9182C124.492 52.7378 124.502 55.8775 124.495 55.8955C124.46 55.9795 28.559 56.0608 22.1773 55.9823L14.9288 55.8931V48.878V41.8629L25.2294 41.7855C30.8947 41.743 41.4066 41.7081 48.5891 41.7081L61.6482 41.708V34.951V28.194H38.2885H14.9288V21.2042V14.2145L38.2591 14.1851L61.5895 14.1557L61.6198 7.07832L61.65 0.000932003L36.4993 0.00850452L11.3485 0.0161935L10.0426 0.285425ZM216.6 106.982L216.597 120.122L217.507 120.088L218.417 120.054L218.475 109.782L218.534 99.5089L227.22 110.109C231.998 115.939 235.998 120.824 236.11 120.964C236.302 121.206 236.313 120.554 236.315 108.142L236.318 95.0651H235.379H234.441L234.411 105.299L234.381 115.532L225.694 104.945C220.917 99.1226 216.917 94.2421 216.805 94.1001C216.613 93.855 216.602 94.5097 216.6 106.982ZM73.1056 94.6048C70.1224 94.9357 67.5465 96.1871 65.3387 98.3782C63.6056 100.098 62.4323 102.085 61.8721 104.248C61.3578 106.234 61.3884 108.945 61.9468 110.857C63.7435 117.011 69.5857 120.997 75.8794 120.364C77.7069 120.18 78.8586 119.864 80.3125 119.147L81.5451 118.54L81.5757 113.792L81.6063 109.045H76.6161H71.626V109.977V110.909H75.6171H79.6082V114.163V117.416L78.6984 117.762C75.8067 118.861 72.6368 118.809 70.0441 117.62C67.159 116.297 64.6878 113.461 63.8856 110.552C63.3546 108.626 63.3535 106.27 63.8826 104.385C64.9106 100.724 68.2139 97.5517 71.8841 96.7019C75.2351 95.9261 78.1082 96.5085 81.2809 98.6065L81.6037 98.8199V97.6544V96.4891L80.6924 96.0185C78.4394 94.8552 75.6069 94.3274 73.1056 94.6048ZM273.013 94.6048C270.03 94.9357 267.442 96.1899 265.257 98.3632C262.956 100.653 261.746 103.147 261.434 106.243C261.035 110.203 262.597 114.177 265.659 116.989C268.441 119.544 272.041 120.74 275.809 120.361C277.512 120.19 278.922 119.795 280.337 119.093L281.453 118.54L281.483 113.792L281.514 109.045H276.524H271.534V109.977V110.909H275.525H279.516V114.163V117.416L278.606 117.762C275.722 118.858 272.539 118.807 269.958 117.623C267.426 116.462 265.089 114.037 264.135 111.581C262.882 108.358 263.175 104.693 264.915 101.799C265.59 100.677 267.25 98.9444 268.35 98.2133C269.397 97.5172 270.64 96.971 271.85 96.6745C273.275 96.3257 275.76 96.3255 277.068 96.6741C278.272 96.9951 279.47 97.5123 280.428 98.125C280.862 98.4031 281.284 98.6702 281.365 98.7187C281.478 98.7869 281.511 98.5445 281.511 97.6479V96.4891L280.602 96.0235C278.304 94.8477 275.518 94.3269 273.013 94.6048ZM0.401738 107.56L0.431671 120.054L5.15644 120.085L9.8812 120.115V119.182V118.249H6.12487H2.36853V106.657V95.0651H1.37017H0.371922L0.401738 107.56ZM34.2974 107.589V120.113H35.2952H36.2929V107.589V95.0651H35.2952H34.2974V107.589ZM106.959 107.589V120.113H107.957H108.955V115.511V110.909H116.818H124.682L124.712 115.482L124.743 120.054L125.711 120.088L126.68 120.122V107.594V95.0651H125.682H124.684V102.055V109.045H116.819H108.955V102.055V95.0651H107.957H106.959V107.589ZM150.861 95.9388V96.8126H153.678H156.495L156.524 108.433L156.554 120.054L157.522 120.088L158.49 120.122L158.52 108.496L158.55 96.8708L161.279 96.8396L164.008 96.8083V95.9367V95.0651H157.435H150.861V95.9388ZM188.425 107.589V120.113H189.422H190.42V107.589V95.0651H189.422H188.425V107.589Z" fill="white"/>
</svg>
