<svg width="25" height="25" viewBox="0 0 25 25" fill="none" xmlns="http://www.w3.org/2000/svg">
<path d="M12.32 24.7C5.52896 24.7 0 19.1711 0 12.3801C0 5.58905 5.52896 0 12.32 0C19.111 0 24.6399 5.52896 24.6399 12.32C24.6399 19.111 19.111 24.7 12.32 24.7ZM12.32 1.20195C6.19003 1.20195 1.20195 6.19003 1.20195 12.32C1.20195 18.4499 6.19003 23.4981 12.32 23.4981C18.4499 23.4981 23.438 18.51 23.438 12.3801C23.438 6.25012 18.4499 1.20195 12.32 1.20195Z" fill="white"/>
<path d="M12.32 7.09149C11.9594 7.09149 11.719 6.8511 11.719 6.49052V5.46886C11.719 5.10828 11.9594 4.86789 12.32 4.86789C12.6806 4.86789 12.9209 5.10828 12.9209 5.46886V6.49052C12.9209 6.8511 12.6806 7.09149 12.32 7.09149Z" fill="white"/>
<path d="M12.32 19.7721C11.9594 19.7721 11.719 19.5317 11.719 19.1711V8.89443C11.719 8.53385 11.9594 8.29346 12.32 8.29346C12.6806 8.29346 12.9209 8.53385 12.9209 8.89443V19.1711C12.9209 19.5317 12.6806 19.7721 12.32 19.7721Z" fill="white"/>
</svg>
