<svg width="29" height="29" viewBox="0 0 29 29" fill="none" xmlns="http://www.w3.org/2000/svg">
<path fill-rule="evenodd" clip-rule="evenodd" d="M14.5 0C6.49187 0 0 6.49187 0 14.5C0 22.5081 6.49187 29 14.5 29C22.5081 29 29 22.5081 29 14.5C29 6.49187 22.5081 0 14.5 0ZM11.312 6.81339C12.1369 6.77585 12.4005 6.76667 14.5007 6.76667H14.4983C16.5992 6.76667 16.8618 6.77585 17.6867 6.81339C18.51 6.85109 19.0723 6.98143 19.5653 7.17267C20.0744 7.37003 20.5046 7.63426 20.9348 8.06443C21.3649 8.49428 21.6292 8.92574 21.8273 9.43437C22.0174 9.92609 22.1479 10.488 22.1866 11.3113C22.2237 12.1362 22.2333 12.3998 22.2333 14.5001C22.2333 16.6003 22.2237 16.8633 22.1866 17.6882C22.1479 18.5111 22.0174 19.0733 21.8273 19.5651C21.6292 20.0736 21.3649 20.5051 20.9348 20.9349C20.5051 21.3651 20.0743 21.63 19.5658 21.8275C19.0738 22.0187 18.5111 22.1491 17.6879 22.1868C16.863 22.2243 16.6002 22.2335 14.4998 22.2335C12.3997 22.2335 12.1362 22.2243 11.3113 22.1868C10.4882 22.1491 9.92609 22.0187 9.43405 21.8275C8.92574 21.63 8.49428 21.3651 8.06459 20.9349C7.63458 20.5051 7.37036 20.0736 7.17267 19.565C6.98159 19.0733 6.85125 18.5113 6.81339 17.688C6.77601 16.8631 6.76667 16.6003 6.76667 14.5001C6.76667 12.3998 6.77633 12.1361 6.81323 11.3112C6.85028 10.4882 6.98079 9.92609 7.17251 9.43421C7.37068 8.92574 7.6349 8.49428 8.06507 8.06443C8.49492 7.63442 8.92638 7.3702 9.43502 7.17267C9.92673 6.98143 10.4887 6.85109 11.312 6.81339Z" fill="#171717"/>
<path fill-rule="evenodd" clip-rule="evenodd" d="M13.8062 8.16014C13.9409 8.15993 14.0858 8.15999 14.2422 8.16006L14.4999 8.16014C16.5648 8.16014 16.8095 8.16755 17.6249 8.2046C18.3789 8.23908 18.7881 8.36507 19.0607 8.47092C19.4216 8.61109 19.6789 8.77865 19.9494 9.04932C20.2201 9.31999 20.3876 9.57777 20.5281 9.93866C20.634 10.2109 20.7601 10.6202 20.7945 11.3742C20.8315 12.1894 20.8396 12.4343 20.8396 14.4982C20.8396 16.562 20.8315 16.8069 20.7945 17.6221C20.76 18.3761 20.634 18.7854 20.5281 19.0576C20.388 19.4185 20.2201 19.6755 19.9494 19.946C19.6788 20.2167 19.4218 20.3842 19.0607 20.5244C18.7884 20.6308 18.3789 20.7564 17.6249 20.7909C16.8097 20.828 16.5648 20.836 14.4999 20.836C12.435 20.836 12.1902 20.828 11.375 20.7909C10.621 20.7561 10.2118 20.6301 9.939 20.5243C9.57811 20.3841 9.32033 20.2165 9.04966 19.9459C8.77899 19.6752 8.61143 19.4181 8.47094 19.057C8.36509 18.7847 8.23894 18.3755 8.20462 17.6215C8.16757 16.8063 8.16016 16.5614 8.16016 14.4962C8.16016 12.4311 8.16757 12.1875 8.20462 11.3722C8.2391 10.6182 8.36509 10.209 8.47094 9.93641C8.61111 9.57551 8.77899 9.31773 9.04966 9.04706C9.32033 8.77639 9.57811 8.60884 9.939 8.46835C10.2116 8.36201 10.621 8.23634 11.375 8.2017C12.0884 8.16948 12.3649 8.15981 13.8062 8.1582V8.16014ZM18.628 9.44421C18.1156 9.44421 17.7 9.85939 17.7 10.3719C17.7 10.8842 18.1156 11.2999 18.628 11.2999C19.1403 11.2999 19.556 10.8842 19.556 10.3719C19.556 9.85955 19.1403 9.44388 18.628 9.44388V9.44421ZM10.5286 14.4998C10.5286 12.3066 12.3067 10.5284 14.4998 10.5283C16.6931 10.5283 18.4708 12.3065 18.4708 14.4998C18.4708 16.693 16.6932 18.4704 14.5 18.4704C12.3068 18.4704 10.5286 16.693 10.5286 14.4998Z" fill="#171717"/>
<path d="M14.4997 11.9224C15.9233 11.9224 17.0775 13.0764 17.0775 14.5002C17.0775 15.9238 15.9233 17.078 14.4997 17.078C13.0759 17.078 11.9219 15.9238 11.9219 14.5002C11.9219 13.0764 13.0759 11.9224 14.4997 11.9224Z" fill="#171717"/>
</svg>
