<svg width="22" height="22" viewBox="0 0 22 22" fill="none" xmlns="http://www.w3.org/2000/svg">
<path fill-rule="evenodd" clip-rule="evenodd" d="M11 0C4.92487 0 0 4.92487 0 11C0 17.0751 4.92487 22 11 22C17.0751 22 22 17.0751 22 11C22 4.92487 17.0751 0 11 0ZM8.5815 5.16878C9.20729 5.1403 9.40724 5.13333 11.0005 5.13333H10.9987C12.5925 5.13333 12.7917 5.1403 13.4175 5.16878C14.0421 5.19738 14.4686 5.29626 14.8426 5.44134C15.2289 5.59106 15.5552 5.79151 15.8815 6.11784C16.2079 6.44394 16.4083 6.77125 16.5587 7.15711C16.7029 7.53014 16.8019 7.95645 16.8312 8.58101C16.8593 9.2068 16.8667 9.40676 16.8667 11.0001C16.8667 12.5934 16.8593 12.7928 16.8312 13.4186C16.8019 14.0429 16.7029 14.4694 16.5587 14.8425C16.4083 15.2283 16.2079 15.5556 15.8815 15.8817C15.5556 16.208 15.2287 16.4089 14.843 16.5588C14.4697 16.7039 14.0429 16.8027 13.4184 16.8313C12.7926 16.8598 12.5932 16.8668 10.9998 16.8668C9.40663 16.8668 9.2068 16.8598 8.58101 16.8313C7.95657 16.8027 7.53014 16.7039 7.15687 16.5588C6.77125 16.4089 6.44394 16.208 6.11797 15.8817C5.79175 15.5556 5.5913 15.2283 5.44134 14.8424C5.29638 14.4694 5.1975 14.0431 5.16878 13.4185C5.14042 12.7927 5.13333 12.5934 5.13333 11.0001C5.13333 9.40676 5.14067 9.20668 5.16866 8.58089C5.19677 7.95657 5.29577 7.53014 5.44121 7.15699C5.59155 6.77125 5.792 6.44394 6.11833 6.11784C6.44442 5.79163 6.77174 5.59118 7.1576 5.44134C7.53062 5.29626 7.95694 5.19738 8.5815 5.16878Z" fill="#BBBBBB"/>
<path fill-rule="evenodd" clip-rule="evenodd" d="M10.4746 6.19092C10.5768 6.19076 10.6867 6.19081 10.8054 6.19086L11.0009 6.19092C12.5673 6.19092 12.753 6.19654 13.3715 6.22465C13.9436 6.25081 14.254 6.34639 14.4608 6.42669C14.7346 6.53302 14.9298 6.66014 15.135 6.86547C15.3403 7.07081 15.4674 7.26636 15.574 7.54014C15.6543 7.7467 15.75 8.05715 15.776 8.62916C15.8042 9.24761 15.8103 9.43339 15.8103 10.9991C15.8103 12.5648 15.8042 12.7505 15.776 13.369C15.7499 13.941 15.6543 14.2514 15.574 14.458C15.4677 14.7318 15.3403 14.9267 15.135 15.1319C14.9297 15.3373 14.7347 15.4644 14.4608 15.5707C14.2542 15.6514 13.9436 15.7467 13.3715 15.7729C12.7531 15.801 12.5673 15.8071 11.0009 15.8071C9.43436 15.8071 9.2487 15.801 8.63025 15.7729C8.05825 15.7465 7.7478 15.6509 7.54088 15.5706C7.26709 15.4643 7.07154 15.3371 6.8662 15.1318C6.66087 14.9265 6.53375 14.7314 6.42718 14.4575C6.34687 14.2509 6.25117 13.9405 6.22514 13.3685C6.19703 12.75 6.19141 12.5643 6.19141 10.9976C6.19141 9.43094 6.19703 9.24614 6.22514 8.62769C6.2513 8.05568 6.34687 7.74524 6.42718 7.53843C6.53351 7.26465 6.66087 7.0691 6.8662 6.86376C7.07154 6.65842 7.26709 6.53131 7.54088 6.42473C7.74768 6.34407 8.05825 6.24873 8.63025 6.22245C9.17146 6.19801 9.38119 6.19068 10.4746 6.18945V6.19092ZM14.1327 7.16528C13.744 7.16528 13.4287 7.48025 13.4287 7.86905C13.4287 8.25772 13.744 8.57305 14.1327 8.57305C14.5214 8.57305 14.8367 8.25772 14.8367 7.86905C14.8367 7.48038 14.5214 7.16504 14.1327 7.16504V7.16528ZM7.98828 11.0006C7.98828 9.33681 9.33719 7.98786 11.001 7.98779C12.6648 7.98779 14.0134 9.33677 14.0134 11.0006C14.0134 12.6644 12.6649 14.0128 11.0011 14.0128C9.33726 14.0128 7.98828 12.6644 7.98828 11.0006Z" fill="#BBBBBB"/>
<path d="M11.0025 9.04443C12.0824 9.04443 12.958 9.91992 12.958 11C12.958 12.08 12.0824 12.9556 11.0025 12.9556C9.92236 12.9556 9.04688 12.08 9.04688 11C9.04688 9.91992 9.92236 9.04443 11.0025 9.04443Z" fill="#BBBBBB"/>
</svg>
