<svg width="22" height="22" viewBox="0 0 22 22" fill="none" xmlns="http://www.w3.org/2000/svg">
<path fill-rule="evenodd" clip-rule="evenodd" d="M11 0C4.92487 0 0 4.92487 0 11C0 17.0751 4.92487 22 11 22C17.0751 22 22 17.0751 22 11C22 4.92487 17.0751 0 11 0ZM5.28074 9.11084H7.77358V16.6008H5.28074V9.11084ZM7.93777 6.79374C7.92159 6.05935 7.39642 5.5 6.54364 5.5C5.69085 5.5 5.13333 6.05935 5.13333 6.79374C5.13333 7.51291 5.67438 8.08837 6.51128 8.08837H6.52721C7.39642 8.08837 7.93777 7.51291 7.93777 6.79374ZM13.8935 8.93457C15.5339 8.93457 16.7637 10.0053 16.7637 12.3059L16.7636 16.6004H14.2709V12.5933C14.2709 11.5868 13.9101 10.9 13.0077 10.9C12.319 10.9 11.9088 11.363 11.7287 11.8102C11.6627 11.9704 11.6466 12.1937 11.6466 12.4176V16.6006H9.15342C9.15342 16.6006 9.18628 9.81347 9.15342 9.11065H11.6466V10.1715C11.9774 9.66155 12.57 8.93457 13.8935 8.93457Z" fill="#BBBBBB"/>
</svg>
