<svg width="48" height="32" viewBox="0 0 48 32" fill="none" xmlns="http://www.w3.org/2000/svg">
<path d="M0 4C0 1.79086 1.79086 0 4 0H44C46.2091 0 48 1.79086 48 4V28C48 30.2091 46.2091 32 44 32H4C1.79086 32 0 30.2091 0 28V4Z" fill="#FDEACE"/>
<path d="M29.0048 6.52747L18.6758 6.56299L18.9888 25.4728L29.3178 25.4373L29.0048 6.52747Z" fill="#FF5F00"/>
<path d="M19.3576 16.0562C19.2937 12.2101 21.0167 8.79264 23.7153 6.57594C21.6783 4.97749 19.1246 4.01629 16.3563 4.02577C9.79809 4.04823 4.58167 9.45096 4.69227 16.1064C4.80287 22.7618 10.1983 28.1282 16.7565 28.1058C19.5248 28.0963 22.0463 27.1177 24.0299 25.5055C21.2584 23.341 19.4216 19.9023 19.3576 16.0562Z" fill="#EB001B"/>
<path d="M43.3062 15.8942C43.4168 22.5497 38.2004 27.9524 31.6422 27.9748C28.8739 27.9843 26.3201 27.0231 24.2831 25.4247C27.0148 23.2079 28.7047 19.7906 28.6408 15.9444C28.5769 12.0983 26.7406 8.69311 23.9686 6.49515C25.9522 4.88293 28.4737 3.90435 31.242 3.89486C37.8002 3.8724 43.1962 9.27223 43.3062 15.8942Z" fill="#F79E1B"/>
</svg>
