<svg width="29" height="29" viewBox="0 0 29 29" fill="none" xmlns="http://www.w3.org/2000/svg">
<path fill-rule="evenodd" clip-rule="evenodd" d="M0 14.5C0 22.5081 6.49187 29 14.5 29C22.5081 29 29 22.5081 29 14.5C29 6.49187 22.5081 0 14.5 0C6.49187 0 0 6.49187 0 14.5ZM11.8418 21.1457L12.0885 17.4496L12.0883 17.4494L18.812 11.3818C19.1071 11.1199 18.7476 10.9922 18.3558 11.2297L10.0578 16.4648L6.47357 15.3461C5.69952 15.1091 5.69396 14.5772 6.64735 14.1948L20.6145 8.80917C21.2524 8.51956 21.8681 8.96239 21.6246 9.93874L19.246 21.1476C19.0799 21.9441 18.5986 22.1346 17.9318 21.7667L14.3084 19.0897L12.5668 20.7832C12.5613 20.7886 12.5558 20.7939 12.5504 20.7992C12.3556 20.9888 12.1944 21.1457 11.8418 21.1457Z" fill="#171717"/>
</svg>
