<svg width="22" height="22" viewBox="0 0 22 22" fill="none" xmlns="http://www.w3.org/2000/svg">
<path fill-rule="evenodd" clip-rule="evenodd" d="M0 11C0 17.0751 4.92487 22 11 22C17.0751 22 22 17.0751 22 11C22 4.92487 17.0751 0 11 0C4.92487 0 0 4.92487 0 11ZM8.98349 16.0414L9.17064 13.2374L9.17049 13.2373L14.2712 8.63423C14.4951 8.43555 14.2224 8.33867 13.9252 8.51888L7.63016 12.4903L4.91105 11.6417C4.32384 11.4619 4.31963 11.0584 5.04288 10.7683L15.6386 6.68258C16.1226 6.46288 16.5897 6.79882 16.4049 7.5395L14.6005 16.0428C14.4745 16.647 14.1094 16.7915 13.6035 16.5124L10.8547 14.4816L9.53349 15.7664C9.52932 15.7704 9.52518 15.7744 9.52105 15.7785C9.37328 15.9223 9.25102 16.0414 8.98349 16.0414Z" fill="#BBBBBB"/>
</svg>
