<svg width="26" height="27" viewBox="0 0 26 27" fill="none" xmlns="http://www.w3.org/2000/svg">
<path d="M18 7.9998C18 6.80659 17.5258 5.66189 16.6818 4.81785C15.8382 3.9738 14.6935 3.5 13.4998 3.5C12.3066 3.5 11.1619 3.97383 10.3178 4.81785C9.4738 5.66186 9 6.80659 9 7.9998C9 9.19342 9.47383 10.3381 10.3178 11.1818C11.1619 12.0258 12.3066 12.5 13.4998 12.5C14.6934 12.5 15.8381 12.0258 16.6818 11.1818C17.5258 10.3382 18 9.19348 18 7.9998Z" stroke="white" stroke-linecap="round" stroke-linejoin="round"/>
<path d="M23 23.4996C23 21.1132 21.9988 18.8238 20.217 17.1357C18.4361 15.4476 16.0196 14.5 13.4996 14.5C10.9806 14.5 8.56399 15.4477 6.78212 17.1357C5.00025 18.8237 4 21.1132 4 23.4996" stroke="white" stroke-linecap="round" stroke-linejoin="round"/>
</svg>
