<svg width="48" height="32" viewBox="0 0 48 32" fill="none" xmlns="http://www.w3.org/2000/svg">
<path d="M0 4C0 1.79086 1.79086 0 4 0H44C46.2091 0 48 1.79086 48 4V28C48 30.2091 46.2091 32 44 32H4C1.79086 32 0 30.2091 0 28V4Z" fill="#D8E3F3"/>
<path d="M41.3105 10.0347H38.7959C38.0357 10.0347 37.4509 10.2686 37.1 11.0288L32.3047 21.9645H35.6965C35.6965 21.9645 36.2813 20.5025 36.3983 20.1516C36.7491 20.1516 40.0825 20.1516 40.5503 20.1516C40.6673 20.561 40.9597 21.906 40.9597 21.906H44.0006L41.3105 10.0347ZM37.3339 17.6955C37.6263 16.9937 38.6205 14.3622 38.6205 14.3622C38.6205 14.4206 38.9129 13.6604 39.0298 13.251L39.2638 14.3037C39.2638 14.3037 39.907 17.1692 40.024 17.754H37.3339V17.6955Z" fill="#3362AB"/>
<path d="M32.5365 18.0465C32.5365 20.5026 30.3143 22.1401 26.864 22.1401C25.402 22.1401 23.9985 21.8477 23.2383 21.4968L23.7061 18.8067L24.1155 18.9822C25.1681 19.45 25.8699 19.6255 27.1564 19.6255C28.0921 19.6255 29.0862 19.2746 29.0862 18.4559C29.0862 17.9296 28.6769 17.5787 27.3903 16.9939C26.1623 16.4091 24.5248 15.4734 24.5248 13.7775C24.5248 11.4383 26.8055 9.85938 30.0219 9.85938C31.25 9.85938 32.3026 10.0933 32.9459 10.3857L32.4781 12.9588L32.2441 12.7249C31.6593 12.491 30.8991 12.257 29.788 12.257C28.5599 12.3155 27.9751 12.8418 27.9751 13.3097C27.9751 13.836 28.6769 14.2453 29.788 14.7717C31.6593 15.6488 32.5365 16.643 32.5365 18.0465Z" fill="#3362AB"/>
<path d="M4 10.1519L4.05848 9.91797H9.08772C9.78947 9.91797 10.3158 10.1519 10.4912 10.9121L11.6023 16.1753C10.4912 13.3683 7.91813 11.0876 4 10.1519Z" fill="#F9B50B"/>
<path d="M18.6768 10.035L13.5891 21.9064H10.1388L7.21484 11.9649C9.32011 13.3099 11.0745 15.4152 11.7178 16.8771L12.0686 18.1052L15.2265 9.97656H18.6768V10.035Z" fill="#3362AB"/>
<path d="M20.0233 9.97656H23.2397L21.1929 21.9064H17.9766L20.0233 9.97656Z" fill="#3362AB"/>
</svg>
